<svg width="160" height="160" viewBox="0 0 160 160" fill="none" xmlns="http://www.w3.org/2000/svg">
<path d="M53.5417 160C68.2617 160 80.2083 148.053 80.2083 133.333V106.667H53.5417C38.8217 106.667 26.875 118.613 26.875 133.333C26.875 148.053 38.8217 160 53.5417 160Z" fill="#0ACF83"/>
<path d="M26.875 79.9999C26.875 65.2799 38.8217 53.3333 53.5417 53.3333H80.2083V106.667H53.5417C38.8217 106.667 26.875 94.7199 26.875 79.9999Z" fill="#A259FF"/>
<path d="M26.875 26.6667C26.875 11.9467 38.8217 0 53.5417 0H80.2083V53.3333H53.5417C38.8217 53.3333 26.875 41.3867 26.875 26.6667Z" fill="#F24E1E"/>
<path d="M80.2083 0H106.875C121.595 0 133.542 11.9467 133.542 26.6667C133.542 41.3867 121.595 53.3333 106.875 53.3333H80.2083V0Z" fill="#FF7262"/>
<path d="M133.542 79.9999C133.542 94.7199 121.595 106.667 106.875 106.667C92.155 106.667 80.2083 94.7199 80.2083 79.9999C80.2083 65.2799 92.155 53.3333 106.875 53.3333C121.595 53.3333 133.542 65.2799 133.542 79.9999Z" fill="#1ABCFE"/>
</svg>
