<svg width="160" height="160" viewBox="0 0 160 160" fill="none" xmlns="http://www.w3.org/2000/svg">
<g clip-path="url(#clip0_22_491)">
<path d="M26.6667 125L44.7167 9.49169C44.8243 8.80096 45.1463 8.16153 45.6372 7.66385C46.1281 7.16618 46.7631 6.83544 47.4523 6.71842C48.1415 6.6014 48.8501 6.70403 49.4777 7.01179C50.1054 7.31954 50.6205 7.81685 50.95 8.43336L69.6167 43.25L77.0583 29.0834C77.3411 28.5459 77.7654 28.0958 78.2853 27.7819C78.8052 27.4679 79.401 27.302 80.0083 27.302C80.6157 27.302 81.2115 27.4679 81.7314 27.7819C82.2513 28.0958 82.6756 28.5459 82.9583 29.0834L133.333 125H26.6667Z" fill="#FFA000"/>
<path d="M89.025 80.0084L69.6083 43.2417L26.6667 125L89.025 80.0084Z" fill="#F57C00"/>
<path d="M133.333 125L119.508 39.45C119.406 38.8473 119.14 38.2844 118.739 37.8228C118.338 37.3613 117.818 37.0188 117.235 36.833C116.653 36.6472 116.031 36.6251 115.436 36.7692C114.842 36.9133 114.299 37.218 113.867 37.65L26.6667 125L74.9167 152.058C76.4068 152.89 78.085 153.327 79.7917 153.327C81.4983 153.327 83.1765 152.89 84.6667 152.058L133.333 125Z" fill="#FFCA28"/>
<path d="M119.508 39.4501C119.406 38.8474 119.14 38.2845 118.739 37.8229C118.338 37.3613 117.818 37.0189 117.235 36.8331C116.653 36.6472 116.031 36.6252 115.436 36.7693C114.842 36.9134 114.299 37.2181 113.867 37.6501L96.5667 55.0001L82.9501 29.0751C82.6673 28.5376 82.243 28.0876 81.7231 27.7736C81.2032 27.4597 80.6074 27.2937 80.0001 27.2937C79.3927 27.2937 78.7969 27.4597 78.277 27.7736C77.7571 28.0876 77.3328 28.5376 77.0501 29.0751L69.6084 43.2418L50.9417 8.43344C50.6116 7.81681 50.0959 7.31963 49.4676 7.01232C48.8393 6.70501 48.1302 6.60313 47.4408 6.7211C46.7514 6.83908 46.1165 7.17093 45.6261 7.66968C45.1358 8.16843 44.8147 8.80879 44.7084 9.50011L26.6667 125H26.6001L26.6584 125.067L27.1334 125.3L96.5251 55.8334L113.842 38.5001C114.274 38.0658 114.818 37.759 115.413 37.6135C116.008 37.468 116.632 37.4895 117.216 37.6755C117.8 37.8615 118.321 38.2049 118.723 38.668C119.124 39.131 119.39 39.6957 119.492 40.3001L133.2 125.083L133.333 125L119.508 39.4501ZM26.8251 124.842L44.7167 10.3251C44.823 9.63379 45.1441 8.99343 45.6345 8.49468C46.1248 7.99593 46.7597 7.66408 47.4491 7.5461C48.1385 7.42813 48.8476 7.53001 49.4759 7.83732C50.1042 8.14463 50.6199 8.64181 50.9501 9.25844L69.6167 44.0751L77.0584 29.9084C77.3412 29.3709 77.7654 28.9209 78.2853 28.607C78.8052 28.293 79.401 28.1271 80.0084 28.1271C80.6157 28.1271 81.2115 28.293 81.7315 28.607C82.2514 28.9209 82.6756 29.3709 82.9584 29.9084L96.2917 55.2668L26.8251 124.842Z" fill="white" fill-opacity="0.2"/>
<path opacity="0.2" d="M84.6667 151.242C83.1765 152.074 81.4983 152.511 79.7917 152.511C78.085 152.511 76.4068 152.074 74.9167 151.242L26.7833 124.242L26.6667 125L74.9167 152.05C76.4068 152.882 78.085 153.319 79.7917 153.319C81.4983 153.319 83.1765 152.882 84.6667 152.05L133.333 125L133.208 124.233L84.6667 151.242Z" fill="#A52714"/>
<path d="M119.508 39.4501C119.406 38.8474 119.14 38.2845 118.739 37.8229C118.338 37.3613 117.818 37.0189 117.235 36.8331C116.653 36.6472 116.031 36.6252 115.436 36.7693C114.842 36.9134 114.299 37.2181 113.867 37.6501L96.5667 55.0001L82.95 29.0751C82.6672 28.5376 82.243 28.0876 81.7231 27.7736C81.2031 27.4597 80.6073 27.2937 80 27.2937C79.3926 27.2937 78.7968 27.4597 78.2769 27.7736C77.757 28.0876 77.3328 28.5376 77.05 29.0751L69.6083 43.2418L50.9417 8.43344C50.6116 7.81681 50.0958 7.31963 49.4675 7.01232C48.8392 6.70501 48.1301 6.60313 47.4407 6.7211C46.7513 6.83908 46.1165 7.17093 45.6261 7.66968C45.1357 8.16843 44.8146 8.80879 44.7083 9.50011L26.6667 125L74.9167 152.05C76.4068 152.882 78.085 153.319 79.7917 153.319C81.4983 153.319 83.1765 152.882 84.6667 152.05L133.333 125L119.508 39.4501Z" fill="url(#paint0_linear_22_491)"/>
</g>
<defs>
<linearGradient id="paint0_linear_22_491" x1="22.6567" y1="33.5676" x2="134.062" y2="144.973" gradientUnits="userSpaceOnUse">
<stop stop-color="white" stop-opacity="0.1"/>
<stop offset="1" stop-color="white" stop-opacity="0"/>
</linearGradient>
<clipPath id="clip0_22_491">
<rect width="160" height="160" fill="white"/>
</clipPath>
</defs>
</svg>
