<svg width="160" height="160" viewBox="0 0 160 160" fill="none" xmlns="http://www.w3.org/2000/svg">
<path d="M12.9268 87.0659C9.0244 83.1635 9.0244 76.8365 12.9268 72.9341L72.9341 12.9268C76.8365 9.0244 83.1635 9.0244 87.0659 12.9268L147.073 72.9341C150.976 76.8365 150.976 83.1635 147.073 87.0659L87.0659 147.073C83.1635 150.976 76.8365 150.976 72.9341 147.073L12.9268 87.0659Z" fill="#EE513B"/>
<path d="M60.7465 25.3081L54.6698 31.3848L70.3643 47.0793C69.7295 48.4414 69.375 49.9605 69.375 51.5624C69.375 56.1104 72.2325 59.9909 76.25 61.5067V99.8993C72.2325 101.415 69.375 105.296 69.375 109.844C69.375 115.712 74.132 120.469 80 120.469C85.868 120.469 90.625 115.712 90.625 109.844C90.625 105.72 88.2763 102.146 84.8438 100.384V61.5588L99.8464 76.5614C99.2425 77.8959 98.9062 79.3774 98.9062 80.9374C98.9062 86.8054 103.663 91.5624 109.531 91.5624C115.399 91.5624 120.156 86.8054 120.156 80.9374C120.156 75.0694 115.399 70.3124 109.531 70.3124C108.391 70.3124 107.293 70.492 106.263 70.8246L90.1504 54.712C90.4589 53.7168 90.625 52.659 90.625 51.5624C90.625 45.6944 85.868 40.9374 80 40.9374C78.9034 40.9374 77.8456 41.1035 76.8504 41.412L60.7465 25.3081Z" fill="white"/>
</svg>
