<svg width="160" height="160" viewBox="0 0 160 160" fill="none" xmlns="http://www.w3.org/2000/svg">
<mask id="mask0_22_460" style="mask-type:luminance" maskUnits="userSpaceOnUse" x="4" y="5" width="152" height="150">
<path d="M4.20425 5.43921H155.804V154.773H4.20425V5.43921Z" fill="white"/>
</mask>
<g mask="url(#mask0_22_460)">
<path d="M80.0042 5.46558C38.1438 5.46558 4.20425 39.4052 4.20425 81.2656C4.20425 116.784 28.6626 146.504 61.6355 154.728C61.2817 153.705 61.0542 152.518 61.0542 151.046V138.09C57.978 138.09 52.8238 138.09 51.5288 138.09C46.3426 138.09 41.7317 135.861 39.4955 131.717C37.013 127.112 36.5834 120.069 30.4309 115.761C28.6055 114.327 29.9951 112.691 32.0988 112.912C35.9834 114.011 39.2051 116.677 42.2367 120.631C45.2563 124.592 46.6776 125.488 52.3184 125.488C55.0534 125.488 59.1467 125.331 62.9997 124.724C65.0717 119.463 68.6534 114.618 73.0305 112.331C47.7892 109.735 35.7434 97.1772 35.7434 80.1285C35.7434 72.7885 38.8701 65.6889 44.1826 59.7068C42.4392 53.7693 40.2472 41.6602 44.8522 37.0489C56.2092 37.0489 63.0755 44.4143 64.7242 46.4039C70.3838 44.4647 76.5997 43.3656 83.1309 43.3656C89.6751 43.3656 95.9159 44.4647 101.588 46.4164C103.218 44.4393 110.09 37.0489 121.473 37.0489C126.097 41.6664 123.88 53.826 122.118 59.751C127.398 65.7201 130.506 72.8014 130.506 80.1285C130.506 97.1647 118.479 109.716 93.2755 112.325C100.211 115.944 105.271 126.114 105.271 133.776V151.046C105.271 151.703 105.125 152.176 105.05 152.738C134.587 142.386 155.804 114.34 155.804 81.2656C155.804 39.4052 121.865 5.46558 80.0042 5.46558Z" fill="black"/>
</g>
</svg>
