<svg width="160" height="160" viewBox="0 0 160 160" fill="none" xmlns="http://www.w3.org/2000/svg">
<rect x="10" y="10" width="140" height="140" fill="#FFCA28"/>
<path d="M95 126.438L105.308 119.618C106.115 122.156 111.231 128.183 117.692 128.183C124.154 128.183 127.154 124.654 127.154 122.314C127.154 115.938 120.556 113.69 117.387 112.611C116.87 112.434 116.445 112.29 116.154 112.163C116.005 112.098 115.779 112.012 115.489 111.901C111.965 110.554 98.9615 105.586 98.9615 91.1857C98.9615 75.3241 114.269 73.5 117.731 73.5C119.995 73.5 130.885 73.7776 136.308 83.9687L126.308 90.9478C124.115 86.5066 120.473 85.0394 118.231 85.0394C112.692 85.0394 111.538 89.0997 111.538 90.9478C111.538 96.1339 117.556 98.4584 122.637 100.421C123.966 100.935 125.231 101.423 126.308 101.932C131.846 104.549 140 108.832 140 122.314C140 129.067 134.336 140 120.077 140C100.923 140 95.8462 128.5 95 126.438Z" fill="#3E3E3E"/>
<path d="M45 127.793L55.7434 120.976C56.5852 123.512 59.8563 128.189 64.6026 128.189C69.349 128.189 71.7783 123.314 71.7783 120.976V75H84.991V120.976C85.2048 127.317 81.6878 140 66.166 140C51.895 140 45.9621 131.518 45 127.793Z" fill="#3E3E3E"/>
</svg>
