<svg width="160" height="160" viewBox="0 0 160 160" fill="none" xmlns="http://www.w3.org/2000/svg">
<path fill-rule="evenodd" clip-rule="evenodd" d="M65.0819 10C54.0966 10 45.1912 18.6227 45.1912 29.2592V42.5926H79.6174V46.2963H29.8907C18.9054 46.2963 10 54.9189 10 65.5555L10 94.4444C10 105.081 18.9054 113.704 29.8907 113.704H41.3661V97.4074C41.3661 86.7708 50.2715 78.1481 61.2568 78.1481H97.9781C107.273 78.1481 114.809 70.852 114.809 61.8518V29.2592C114.809 18.6227 105.903 10 94.918 10H65.0819ZM60.4918 33.7037C64.2944 33.7037 67.377 30.7189 67.377 27.037C67.377 23.3551 64.2944 20.3704 60.4918 20.3704C56.6892 20.3704 53.6065 23.3551 53.6065 27.037C53.6065 30.7189 56.6892 33.7037 60.4918 33.7037Z" fill="url(#paint0_linear_17_418)"/>
<path fill-rule="evenodd" clip-rule="evenodd" d="M94.9181 150C105.903 150 114.809 141.377 114.809 130.741V117.407L80.3826 117.407L80.3826 113.704H130.109C141.095 113.704 150 105.081 150 94.4445V65.5556C150 54.919 141.095 46.2964 130.109 46.2964L118.634 46.2964V62.5927C118.634 73.2293 109.729 81.8519 98.7432 81.8519H62.0219C52.7266 81.8519 45.1913 89.148 45.1913 98.1482L45.1913 130.741C45.1913 141.377 54.0967 150 65.082 150H94.9181ZM99.5082 126.296C95.7056 126.296 92.623 129.281 92.623 132.963C92.623 136.645 95.7056 139.63 99.5082 139.63C103.311 139.63 106.393 136.645 106.393 132.963C106.393 129.281 103.311 126.296 99.5082 126.296Z" fill="url(#paint1_linear_17_418)"/>
<defs>
<linearGradient id="paint0_linear_17_418" x1="62.4043" y1="10" x2="62.4043" y2="113.704" gradientUnits="userSpaceOnUse">
<stop stop-color="#327EBD"/>
<stop offset="1" stop-color="#1565A7"/>
</linearGradient>
<linearGradient id="paint1_linear_17_418" x1="97.5957" y1="46.2964" x2="97.5957" y2="150" gradientUnits="userSpaceOnUse">
<stop stop-color="#FFDA4B"/>
<stop offset="1" stop-color="#F9C600"/>
</linearGradient>
</defs>
</svg>
