<svg width="160" height="160" viewBox="0 0 160 160" fill="none" xmlns="http://www.w3.org/2000/svg">
<g clip-path="url(#clip0_86_86)">
<path d="M51.0055 1.10592C51.9941 0.326281 52.8653 0.0272465 53.6743 0.00228629C55.4887 0.00228629 57.2833 0.895962 57.9538 1.3428C61.4369 0.205395 62.2303 1.76321 63.9408 2.39798C67.7367 1.59583 68.8898 3.34207 70.7119 5.18521L72.8286 5.14312C78.5528 8.51667 81.3905 15.3871 82.3991 18.9197C83.4073 15.3876 86.2518 8.51716 91.977 5.14312L94.0938 5.18521C95.9134 3.34207 97.067 1.59583 100.863 2.39798C102.573 1.76321 103.369 0.205395 106.849 1.3428C109.022 0.655169 110.925 -1.16302 113.8 1.10543C116.221 0.171625 118.568 -0.152369 120.667 1.74804C123.909 1.32763 124.962 2.19536 125.76 3.20797C126.473 3.19328 131.085 2.47678 133.2 5.63254C138.518 5.00315 140.197 8.75942 138.294 12.2622L138.332 12.321C139.404 13.9818 140.476 15.6408 137.966 18.8062C138.864 20.5911 138.307 22.5272 136.191 24.8701C136.749 27.3788 135.652 29.149 133.683 30.5287C134.051 33.9619 130.535 35.9583 129.484 36.6694C129.082 38.6696 128.241 40.5573 124.224 41.6013C123.562 44.5828 121.148 45.0977 118.81 45.7231C126.537 50.2155 133.162 56.1247 133.117 70.6222L134.251 72.6411C143.11 78.0286 151.08 95.3456 138.617 109.422C137.803 113.827 136.437 116.992 135.221 120.494C133.403 134.607 121.536 141.216 118.407 141.997C113.82 145.491 108.935 148.806 102.325 151.128C96.093 157.555 82.3536 160 82.2538 160C75.4661 160.004 68.715 157.554 62.4838 151.128C55.8732 148.806 50.9884 145.491 46.402 141.997C43.2717 141.216 31.4048 134.607 29.5867 120.494C28.3709 116.992 27.0055 113.827 26.1916 109.422C13.7271 95.3471 21.6977 78.0305 30.5572 72.643L31.6892 70.6242C31.6442 56.1252 38.2699 50.2165 45.9963 45.7251C43.6584 45.0996 41.2446 44.5847 40.5819 41.6032C36.5652 40.5598 35.7249 38.6716 35.3216 36.6714C34.2718 35.9602 30.7549 33.9639 31.1234 30.5306C29.1545 29.151 28.0567 27.3812 28.6152 24.872C26.4994 22.5292 25.9425 20.593 26.8405 18.8086C24.3014 15.6039 25.4266 13.9433 26.5126 12.2627C24.6088 8.75991 26.289 5.00413 31.605 5.63303C33.7208 2.47727 38.3335 3.19426 39.0451 3.20895C39.8434 2.19585 40.8966 1.32812 44.138 1.74853C46.2371 -0.15188 48.5848 0.172604 51.0055 1.10592Z" fill="black"/>
<path d="M42.2762 14.8458C57.4658 22.677 66.2963 29.012 71.1342 34.4073C68.6568 44.3371 55.7323 44.7903 51.0065 44.5118C51.974 44.0616 52.7816 43.5217 53.0679 42.6932C51.882 41.8504 47.6775 42.6041 44.7419 40.9552C45.8695 40.7213 46.3971 40.4937 46.9242 39.6617C44.1512 38.7773 41.1638 38.0148 39.4068 36.5495C40.3548 36.5613 41.2402 36.7619 42.4784 35.903C39.9946 34.5644 37.3439 33.5034 35.2844 31.4571C36.5687 31.4258 37.9532 31.4444 38.356 30.9721C36.0827 29.5636 34.1642 27.9974 32.5765 26.284C34.3736 26.5008 35.1327 26.3143 35.5673 26.0011C33.8485 24.2407 31.6735 22.7543 30.6364 20.5852C31.9706 21.0453 33.1917 21.2215 34.0717 20.5451C33.4878 19.2276 30.9859 18.4504 29.545 15.3715C30.9502 15.508 32.4399 15.6778 32.738 15.3715C32.0861 12.7149 30.9673 11.2212 29.87 9.67368C32.8765 9.62914 37.432 9.68542 37.226 9.43142L35.3667 7.53199C38.3036 6.74109 41.3087 7.65875 43.4905 8.34002C44.4698 7.56723 43.4729 6.58986 42.2777 5.59194C44.7737 5.92524 47.029 6.49883 49.0679 7.28924C50.1568 6.306 48.3607 5.32227 47.4915 4.33904C51.3476 5.07022 52.9813 6.09849 54.6047 7.12773C55.7827 5.99865 54.6722 5.0389 53.8774 4.05615C56.785 5.13287 58.2826 6.5233 59.859 7.89563C60.3935 7.17423 61.2172 6.64517 60.2227 4.9048C62.287 6.09457 63.8419 7.49675 64.992 9.06778C66.2694 8.25437 65.7531 7.14241 65.7599 6.11709C67.9055 7.86235 69.2671 9.71968 70.9336 11.533C71.2693 11.2883 71.563 10.4597 71.8228 9.14853C76.9407 14.1137 84.1728 26.6207 73.6816 31.5795C64.7532 24.2157 54.0898 18.863 42.2728 14.8478L42.2762 14.8458Z" fill="#75A928"/>
<path d="M122.871 14.8458C107.684 22.678 98.853 29.011 94.0156 34.4073C96.4931 44.3371 109.417 44.7903 114.143 44.5118C113.175 44.0616 112.368 43.5218 112.082 42.6932C113.268 41.8504 117.472 42.6041 120.407 40.9552C119.28 40.7213 118.753 40.4937 118.225 39.6617C120.999 38.7773 123.986 38.0148 125.743 36.5495C124.795 36.5613 123.909 36.7619 122.671 35.903C125.155 34.5644 127.806 33.5034 129.865 31.4571C128.581 31.4258 127.196 31.4444 126.794 30.9721C129.067 29.5636 130.986 27.9975 132.573 26.284C130.776 26.5008 130.017 26.3143 129.583 26.0011C131.301 24.2407 133.476 22.7543 134.513 20.5852C133.179 21.0453 131.958 21.2215 131.078 20.5451C131.662 19.2276 134.164 18.4504 135.604 15.3715C134.2 15.508 132.709 15.6778 132.411 15.3715C133.065 12.7139 134.184 11.2202 135.281 9.6727C132.274 9.62817 127.719 9.68445 127.925 9.43044L129.784 7.53052C126.847 6.74012 123.842 7.65777 121.66 8.33904C120.681 7.56625 121.677 6.58889 122.873 5.59097C120.377 5.92377 118.121 6.49786 116.083 7.28826C114.994 6.30503 116.79 5.3213 117.659 4.33806C113.803 5.06925 112.17 6.09751 110.546 7.12676C109.368 5.99767 110.479 5.03792 111.273 4.05518C108.366 5.13189 106.868 6.52233 105.292 7.89465C104.757 7.17325 103.934 6.64419 104.928 4.90382C102.864 6.0936 101.309 7.49578 100.159 9.0668C98.8814 8.25339 99.3978 7.14095 99.3909 6.11611C97.2453 7.86137 95.8837 9.71822 94.2173 11.532C93.8815 11.2873 93.5879 10.4587 93.328 9.14707C88.2102 14.1127 80.9781 26.6197 91.4692 31.5785C100.393 24.2128 111.056 18.861 122.873 14.8458H122.871Z" fill="#75A928"/>
<path d="M100.97 115.959C101.023 125.225 92.9195 132.776 82.8712 132.825C72.8225 132.874 64.6336 125.402 64.5808 116.135C64.5803 116.077 64.5803 116.018 64.5808 115.959C64.5279 106.693 72.6307 99.142 82.6794 99.093C92.7281 99.0441 100.917 106.516 100.97 115.782V115.959Z" fill="#BC1142"/>
<path d="M72.2465 68.0306C79.7855 72.9703 81.1446 84.1662 75.2819 93.0373C69.4191 101.909 58.5551 105.097 51.0161 100.158C43.4771 95.2182 42.1185 84.0223 47.9807 75.1511C53.8434 66.2795 64.7075 63.0914 72.2465 68.0306Z" fill="#BC1142"/>
<path d="M92.5953 67.1366C85.0568 72.0758 83.6977 83.2721 89.56 92.1433C95.4227 101.015 106.287 104.203 113.826 99.2634C121.365 94.3242 122.724 83.1283 116.861 74.2566C110.999 65.3854 100.135 62.1974 92.5953 67.1366Z" fill="#BC1142"/>
<path d="M34.5675 76.1063C42.707 73.9244 37.3156 109.78 30.6928 106.838C23.4078 100.978 21.0615 83.819 34.5675 76.1063Z" fill="#BC1142"/>
<path d="M128.63 75.6592C120.49 73.4779 125.882 109.334 132.505 106.393C139.79 100.533 142.136 83.3714 128.63 75.6592Z" fill="#BC1142"/>
<path d="M100.975 48.9581C115.022 46.5864 126.71 54.9319 126.238 70.1635C125.776 76.0033 95.7999 49.8278 100.975 48.9581Z" fill="#BC1142"/>
<path d="M62.1652 48.5114C48.1175 46.1392 36.4302 54.4867 36.902 69.7173C37.364 75.5566 67.3408 49.3811 62.1652 48.5114Z" fill="#BC1142"/>
<path d="M82.3432 44.9593C73.9594 44.741 65.9134 51.1812 65.8939 54.9169C65.8709 59.4558 72.5225 64.1033 82.4004 64.2212C92.4873 64.2932 98.9241 60.5012 98.9564 55.817C98.9936 50.5097 89.7823 44.877 82.3432 44.9588V44.9593Z" fill="#BC1142"/>
<path d="M82.8534 138.036C90.1629 137.717 99.9708 140.39 99.9904 143.937C100.112 147.381 91.0952 155.162 82.3689 155.011C73.3313 155.401 64.4695 147.608 64.5855 144.907C64.4499 140.947 75.5895 137.855 82.8534 138.036Z" fill="#BC1142"/>
<path d="M55.8567 117.019C61.0606 123.288 63.4333 134.303 59.0902 137.55C54.9816 140.029 45.0038 139.008 37.9122 128.82C33.1291 120.271 33.7453 111.571 37.1037 109.016C42.1256 105.957 49.8848 110.089 55.8572 117.019H55.8567Z" fill="#BC1142"/>
<path d="M108.811 115.031C103.181 121.626 100.045 133.655 104.153 137.529C108.08 140.539 118.623 140.118 126.411 129.312C132.066 122.055 130.171 109.934 126.941 106.716C122.143 103.005 115.254 107.754 108.811 115.029V115.031Z" fill="#BC1142"/>
</g>
<defs>
<clipPath id="clip0_86_86">
<rect width="160" height="160" fill="white"/>
</clipPath>
</defs>
</svg>
